<svg width="54" height="54" viewBox="0 0 54 54" fill="none" xmlns="http://www.w3.org/2000/svg">
<circle cx="27" cy="27" r="25" fill="#FCF8FF" stroke="#FCF8FF" stroke-width="4"/>
<path d="M25.579 28.6842H15.1579C14.7553 28.6842 14.4178 28.5472 14.1454 28.2733C13.873 27.9993 13.7368 27.6598 13.7368 27.2549C13.7368 26.8499 13.873 26.5132 14.1454 26.2447C14.4178 25.9763 14.7553 25.8421 15.1579 25.8421H25.579V15.4211C25.579 15.0184 25.7159 14.6809 25.9899 14.4086C26.2639 14.1362 26.6033 14 27.0083 14C27.4133 14 27.75 14.1362 28.0184 14.4086C28.2868 14.6809 28.4211 15.0184 28.4211 15.4211V25.8421H38.8421C39.2447 25.8421 39.5822 25.9791 39.8546 26.253C40.127 26.527 40.2632 26.8665 40.2632 27.2714C40.2632 27.6764 40.127 28.0132 39.8546 28.2816C39.5822 28.55 39.2447 28.6842 38.8421 28.6842H28.4211V39.1053C28.4211 39.5079 28.2841 39.8454 28.0101 40.1178C27.7362 40.3901 27.3967 40.5263 26.9917 40.5263C26.5867 40.5263 26.25 40.3901 25.9816 40.1178C25.7132 39.8454 25.579 39.5079 25.579 39.1053V28.6842Z" fill="#312E34" stroke="#312E34" stroke-width="2"/>
</svg>
